<svg width="300" height="300" viewBox="0 0 300 300" xmlns="http://www.w3.org/2000/svg"><title>Untitled</title><g fill="#000" fill-rule="evenodd"><path d="M246.66 218.308c0 16.852-43.642 41.265-97.006 41.265s-97.006-24.413-97.006-41.265c0-12.53 15.124-20.092 38.673-25.71-1.512-29.814-10.154-64.166-11.666-70.215-.216-.216-.216-.648-.216-.864 0-6.267 31.76-11.236 70.432-11.236s70.43 4.97 70.43 11.235c0 .215 0 .647-.215.863-1.512 6.05-10.154 40.4-11.666 70.216 23.116 5.832 38.24 13.177 38.24 25.708zm-38.673-22.685c-5.834 17.068-43.426 17.716-58.333 18.58-14.908-.864-52.5-1.512-58.333-18.58.217 6.914 0 13.395-.863 19.228 12.314 21.39 58.98 20.958 58.98 20.958s46.667.432 58.982-20.957c-.433-5.832-.65-12.313-.433-19.227z"/><path d="M124.67 41.498c-.355-2.253-5.216-1.746-7.218.072-2 1.817-3.716 6.543-3.145 10.905.57 4.362 2.287 14.54 1.715 17.156-.572 2.618-.572 6.98-4.003 6.98-3.43 0-4.004-3.49-4.004-6.253 0-2.76 1.358-6.98.93-10.467-.428-3.49-1.645-4.652-2.788-4.652-1.143 0-3.788 3.052-4.075 5.234-.285 2.18 1.073 6.687.93 7.85-.143 1.163-.43 4.653-2.145 4.218-1.715-.437-3.86-4.508-4.003-6.107-.14-1.6-.427-3.926-1.43-4.508-1-.582-3.572 2.327-3.43 4.362.143 2.035 0 6.98 4.86 10.758 4.863 3.78 12.58 10.324 16.013 12.503 3.43 2.183 10.294 6.835 13.724 9.743 3.43 2.91 10.722 13.378 10.722 13.378h5.29s-1.43-4.362-1.715-7.997c-.286-3.635.81-6.59 1.786-8.287.977-1.696 4.36-5.234 1.216-7.125-3.144-1.89-5.79 3.054-6.148 4.36-.547 2.01-.858 3.056-.858 3.056s-4.717-2.18-7.148-5.09c-2.43-2.908-5.575-9.014-6.147-14.83-.57-5.815.144-12.212 2.145-14.538 2-2.327 9.864-6.688 9.245-8.094-.785-1.78-3.6-1.867-6.815-.922-3.78 1.11-4.574 4.217-6.72 3.49-1.285-.437-2.858-3.2-2.143-6.543.714-3.344 5.717-6.398 5.36-8.65zM174.43 41.498c.358-2.253 5.22-1.746 7.22.072 2.002 1.817 3.717 6.543 3.145 10.905-.57 4.362-2.288 14.54-1.714 17.156.572 2.618.572 6.98 4.002 6.98 3.43 0 4.003-3.49 4.003-6.253 0-2.76-1.358-6.98-.928-10.467.428-3.49 1.644-4.652 2.788-4.652 1.143 0 3.788 3.052 4.075 5.234.286 2.18-1.074 6.687-.93 7.85.144 1.163.43 4.653 2.143 4.218 1.717-.437 3.862-4.508 4.005-6.107.142-1.6.43-3.926 1.428-4.508 1.002-.582 3.575 2.327 3.43 4.362-.14 2.035 0 6.98-4.858 10.758-4.86 3.78-12.58 10.324-16.012 12.503-3.43 2.183-10.292 6.835-13.723 9.743-3.43 2.91-10.722 13.378-10.722 13.378h-5.29s1.43-4.362 1.716-7.997c.286-3.635-.81-6.59-1.787-8.287-.977-1.696-4.36-5.234-1.216-7.125 3.144-1.89 5.79 3.054 6.146 4.36.55 2.01.858 3.056.858 3.056s4.718-2.18 7.148-5.09c2.43-2.908 5.576-9.014 6.147-14.83.572-5.815-.143-12.212-2.144-14.538-2.002-2.327-9.865-6.688-9.246-8.094.786-1.78 3.6-1.867 6.816-.922 3.78 1.11 4.574 4.217 6.718 3.49 1.288-.437 2.86-3.2 2.145-6.543-.717-3.344-5.72-6.398-5.363-8.65z"/></g></svg>